<?xml version="1.0" encoding="UTF-8"?>
<svg width="90px" height="90px" viewBox="0 0 90 90" version="1.1" xmlns="http://www.w3.org/2000/svg" xmlns:xlink="http://www.w3.org/1999/xlink">
    <!-- Generator: Sketch 52.6 (67491) - http://www.bohemiancoding.com/sketch -->
    <title>Group 8</title>
    <desc>Created with Sketch.</desc>
    <defs>
        <polygon id="path-1" points="0 0.0308299541 10.6691108 0.0308299541 10.6691108 9.91522644 0 9.91522644"></polygon>
    </defs>
    <g id="Symbols" stroke="none" stroke-width="1" fill="none" fill-rule="evenodd">
        <g id="Group-8">
            <rect id="Rectangle-Copy" fill-opacity="0.2" fill="#00CD98" x="0" y="0" width="90" height="90"></rect>
            <g id="Group-14-Copy-2" transform="translate(23.000000, 30.000000)">
                <path d="M22.1186441,0.172425696 C25.9097103,0.172425696 28.9830508,3.24576624 28.9830508,7.03683248 C28.9830508,10.8278987 25.9097103,13.9012393 22.1186441,13.9012393 C18.3275778,13.9012393 15.2542373,10.8278987 15.2542373,7.03683248 C15.2542373,3.24576624 18.3275778,0.172425696 22.1186441,0.172425696" id="Fill-1" fill="#00CD98"></path>
                <path d="M36.2288136,7.79954434 C38.9668352,7.79954434 41.1864407,10.0191498 41.1864407,12.7571715 C41.1864407,15.4951931 38.9668352,17.7147986 36.2288136,17.7147986 C33.4907919,17.7147986 31.2711864,15.4951931 31.2711864,12.7571715 C31.2711864,10.0191498 33.4907919,7.79954434 36.2288136,7.79954434" id="Fill-3" fill="#00CD98"></path>
                <path d="M8.77118644,7.79954434 C11.5092081,7.79954434 13.7288136,10.0191498 13.7288136,12.7571715 C13.7288136,15.4951931 11.5092081,17.7147986 8.77118644,17.7147986 C6.03316483,17.7147986 3.81355932,15.4951931 3.81355932,12.7571715 C3.81355932,10.0191498 6.03316483,7.79954434 8.77118644,7.79954434" id="Fill-5" fill="#00CD98"></path>
                <path d="M22.5,15.426663 C15.5609512,15.426663 9.91525424,21.1456689 9.91525424,28.1748207 C9.91525424,28.7161258 10.3489731,29.1554765 10.8833395,29.1554765 L34.1166605,29.1554765 C34.6510269,29.1554765 35.0847458,28.7161258 35.0847458,28.1748207 C35.0847458,21.1456689 29.4390488,15.426663 22.5,15.426663" id="Fill-7" fill="#00CD98"></path>
                <g id="Group-11" transform="translate(0.000000, 19.240222)">
                    <mask id="mask-2" fill="white">
                        <use xlink:href="#path-1"></use>
                    </mask>
                    <g id="Clip-10"></g>
                    <path d="M10.6691108,0.244332251 C10.068199,0.11580461 9.45743776,0.0308299541 8.83691905,0.0308299541 C3.96482086,0.0308299541 -1.84102864e-05,4.02222945 -1.84102864e-05,8.92675899 C-1.84102864e-05,9.47237597 0.439895383,9.91522644 0.981894214,9.91522644 L8.03570339,9.91522644 C7.92570193,9.60498091 7.85500643,9.27471955 7.85500643,8.92675899 C7.85500643,5.6827102 8.90761455,2.68774743 10.6691108,0.244332251" id="Fill-9" fill="#00CD98" mask="url(#mask-2)"></path>
                </g>
                <path d="M36.1557432,19.2402223 C35.5347105,19.2402223 34.9234434,19.3254622 34.3220339,19.4543911 C36.0849891,21.9054343 37.1384691,24.909747 37.1384691,28.1639232 C37.1384691,28.5129701 37.067715,28.8440766 36.9576224,29.1554765 L44.0172741,29.1554765 C44.5597218,29.1554765 45,28.7112436 45,28.1639232 C45,23.2439895 41.0318768,19.2402223 36.1557432,19.2402223" id="Fill-12" fill="#00CD98"></path>
            </g>
        </g>
    </g>
</svg>